<svg xmlns="http://www.w3.org/2000/svg" viewBox="0 0 297.45 285.29"> <g id="duraclim_icon" data-name="DuraClim"> <path fill="#032258" d="M59.75,121.43c23-23.28,50-28.17,80-20.5,12.25,3.13,21.86,10.3,27.66,22.24,8.67-8.09,17.46-15.14,28.12-19.36,20.73-8.21,41.92-9,63-2,20.78,6.85,31,22.9,34.94,43.6a125.86,125.86,0,0,1,2,23.34c0,30.16,0,60.32.18,90.48.06,7.46.94,14.94,1.74,22.38.3,2.82-.21,3.75-3.22,3.72q-27.74-.19-55.49,0c-2.52,0-3.58-.44-3.18-3.28,3.22-23.21,1.62-46.57,1.93-69.87.16-11.83,0-23.66,0-35.49,0-1.83,0-3.67-.11-5.5-1.13-20.19-16.15-29.51-34.86-21.63-14,5.87-25.07,22.57-25,37.73.07,25,.09,50,.37,75,.07,6.47.93,12.94,1.65,19.38.31,2.78-.34,3.72-3.33,3.7-18.5-.13-37-.08-55.49-.05-2,0-3.54.19-3.14-2.78,3.19-24,2-48.21,2.19-72.35q.14-19.74-.3-39.47c-.39-18.11-13.13-27.25-30.48-21.76-15.11,4.78-23.11,16.62-28.85,30.4-.54,1.3-.3,3-.3,4.44,0,22.66-.2,45.33.08,68,.12,10,1.07,19.93,1.91,29.87.23,2.7.05,3.74-3.06,3.72-18.33-.14-36.66-.11-55,0-2.47,0-3.59-.32-3.13-3.26,2.06-13.2,2.05-26.55,2.11-39.85q.21-47.24,0-94.48c-.06-14.14.2-28.32-2.06-42.36-.36-2.23.24-3,2.5-2.95q26.75.09,53.49,0c2.39,0,3.24.76,3.18,3.15C59.66,110.6,59.75,115.69,59.75,121.43Z"/> <path fill="#195ebe" d="M268.26,28.17c10.55,8.49,18,19.42,24.36,31.18,1.24,2.28,2.38,4.62,3.57,6.93l-1,.85c-4.09-3.6-8.46-6.93-12.24-10.83-18.87-19.51-42.07-24.77-68.08-21.18-1.79.25-3.62.17-5.43.25.38-1.91,2.85-.63,3.62-2.66a36.16,36.16,0,0,0-4.46-1.56c-20.68-4.38-41.37-8.7-62-13.08-2.53-.54-5.41-.64-6.47-3.77a78.34,78.34,0,0,1,17.43-4.92c1,1.08,1.51.57,1.92-.49l2-.6c1,1.19,1.55.64,2-.5l3-.62a95.11,95.11,0,0,0,9.12,2.91c18.86,4.07,37.68,8.41,56.67,11.83C244.22,24.07,255.84,28.52,268.26,28.17Z"/> <path fill="#0e3e86" d="M138.43,52.23a8.71,8.71,0,0,1-5.59,1.34c-.47-2.21-1.75-3.22-4.08-3.64-5.2-.93-10.32-2.29-15.5-3.39Q69.85,37.39,26.41,28.32c-2-.41-4.51-1.15-5.13,2.14A54.12,54.12,0,0,1,10.23,17.19a7,7,0,0,1,5.26-1c6.42,1.73,13.41,1,19.38,4.65,1.26.76,2.64,1.47,4.24,1l2.29.91c2.58,2.15,5.44,3.39,8.88,2.81a3.7,3.7,0,0,1,3.12.36c.44,1.06,1,1.53,1.94.45l2.06.45c1.77,2.13,3.83,1.52,5.91.62l2.09.28c.93,2.14,2.84,1.31,4.37,1.35,3.29.08,6.77-.75,9.86,0,22.92,5.8,46.19,10,69.27,15,1.77.39,4.26.3,4.86,1.84,1,2.56-2.91,1.47-3.36,3.35l-2.07.6c-1-1.14-1.51-.6-1.93.48l-2.06.57c-.87-1.15-1.46-.74-1.93.35l-2.1.58C139.46,50.78,138.88,51.21,138.43,52.23Z"/> <path fill="#1e68cd" d="M268.26,28.17c-12.42.35-24-4.1-36-6.26-19-3.42-37.8-7.76-56.67-11.83a95.11,95.11,0,0,1-9.12-2.91c27.25-7,54.38-10.42,80.46,4.07C254.89,15.67,262.39,21,268.26,28.17Z"/> <path fill="#124a9b" d="M150.42,49.27c.45-1.88,4.36-.8,3.36-3.35-.6-1.54-3.09-1.46-4.86-1.84-23.08-5-46.35-9.18-69.27-15-3.09-.78-6.56,0-9.86,0-1.53,0-3.45.79-4.37-1.35,16.24,0,32.07-3.09,47.87-6.35.19,3.29,3,3.24,5.08,3.69,19.24,4.07,38.51,8,57.76,12.08,2.24.47,5.35,0,5.31,3.8A247.75,247.75,0,0,1,150.42,49.27Z"/> <path fill="#1453ac" d="M181.43,40.95c0-3.78-3.07-3.33-5.31-3.8-19.25-4.06-38.51-8-57.76-12.08-2.12-.45-4.89-.4-5.08-3.69a38.68,38.68,0,0,1,11.39-2.67c1.18.44,2.23.48,2.78-.94a8.93,8.93,0,0,1,5-1.53c1,1.27,1.58.69,2-.49a13.85,13.85,0,0,1,5.65-1.44c1.06,3.13,3.94,3.24,6.47,3.77,20.68,4.38,41.37,8.69,62,13.08a36.16,36.16,0,0,1,4.46,1.56c-.77,2-3.24.75-3.62,2.66a7,7,0,0,1-4.08.64c-.88-1.23-1.49-.83-2,.33Z"/> <path fill="#083173" d="M21.28,30.46c.62-3.29,3.17-2.55,5.13-2.14q43.44,9,86.85,18.23c5.17,1.09,10.3,2.46,15.5,3.39,2.33.42,3.6,1.43,4.08,3.64l-.05.05a1.46,1.46,0,0,0-2.37.55l-3.1.64c-.92-1.1-1.46-.57-1.9.44l-2.14.48c-1.47-.94-2.82-1.16-3.84.62l-2.16.38c-1.11-1.06-2.49-.43-3.74-.6a32.58,32.58,0,0,0-7.73-3c-17.32-3.54-34.58-7.46-52-10.61-7.7-1.39-15.16-4.93-23.3-3.45C26.88,36.82,24.1,33.61,21.28,30.46Z"/> <path fill="#082b67" d="M30.53,39.08c8.14-1.48,15.6,2.06,23.3,3.45,17.39,3.14,34.65,7.06,52,10.61a32.57,32.57,0,0,1,7.73,3l-.13,1.23-2.14.34c-2.07-.82-4.12-1.39-5.82.74l-2.17.32c-3.66-.89-7.3-1.47-10.82.55l-2,0c-3.53-2.14-7.18-1.43-10.84-.46-1.75,0-3.52.17-5.16-.64-4.84-1.61-9.63-3.43-14.85-3.33l-2.15-.62a3.82,3.82,0,0,0-4.55-1.74l-2.45-1.18c-.43-1.17-1.29-1.31-2.35-1l-1.66-.86c-.32-1.3-1.18-1.5-2.31-1.15C39.27,45.75,34.36,43.19,30.53,39.08Z"/> <path fill="#124a9b" d="M39.12,21.83c-1.6.47-3-.24-4.24-1-6-3.62-13-2.92-19.38-4.65a7,7,0,0,0-5.26,1A45,45,0,0,1,0,0C11.77,9.7,25.83,15.06,39.12,21.83Z"/> <path fill="#124a9b" d="M59.58,54.92c5.22-.09,10,1.72,14.85,3.33C69.18,58.44,64.36,56.78,59.58,54.92Z"/> <path fill="#124a9b" d="M79.59,58.89c3.66-1,7.31-1.69,10.84.46A27.63,27.63,0,0,1,79.59,58.89Z"/> <path fill="#124a9b" d="M92.44,59.32c3.51-2,7.16-1.44,10.82-.55A30.93,30.93,0,0,1,92.44,59.32Z"/> <path fill="#124a9b" d="M50.28,25.55c-3.44.58-6.3-.66-8.88-2.81C44.62,22.88,47.44,24.26,50.28,25.55Z"/> <path fill="#124a9b" d="M63.32,27.44c-2.09.91-4.14,1.52-5.91-.62C59.42,26.63,61.44,26.42,63.32,27.44Z"/> <path fill="#124a9b" d="M105.43,58.45c1.7-2.13,3.75-1.56,5.82-.74A9,9,0,0,1,105.43,58.45Z"/> <path fill="#124a9b" d="M52.88,52.55a3.82,3.82,0,0,1,4.55,1.74C55.59,54.55,54.29,53.4,52.88,52.55Z"/> <path fill="#124a9b" d="M119.43,56.36c1-1.78,2.38-1.56,3.84-.62A4.1,4.1,0,0,1,119.43,56.36Z"/> <path fill="#124a9b" d="M113.39,57.37l.13-1.23c1.25.17,2.63-.46,3.74.6A4.49,4.49,0,0,1,113.39,57.37Z"/> <path fill="#124a9b" d="M55.35,26.37c-.94,1.08-1.51.61-1.94-.45A1.62,1.62,0,0,1,55.35,26.37Z"/> <path fill="#1e68cd" d="M163.46,7.79c-.41,1.13-1,1.69-2,.5A1.55,1.55,0,0,1,163.46,7.79Z"/> <path fill="#195ebe" d="M203.42,36.33c.48-1.16,1.09-1.56,2-.33A1.49,1.49,0,0,1,203.42,36.33Z"/> <path fill="#1e68cd" d="M159.46,8.88c-.42,1.05-1,1.56-1.92.49A1.44,1.44,0,0,1,159.46,8.88Z"/> <path fill="#195ebe" d="M134.46,15.73c-.41,1.19-1,1.77-2,.49A1.63,1.63,0,0,1,134.46,15.73Z"/> <path fill="#195ebe" d="M127.45,17.76c-.55,1.41-1.6,1.38-2.78.94A2.52,2.52,0,0,1,127.45,17.76Z"/> <path fill="#124a9b" d="M125.41,55.26c.43-1,1-1.53,1.9-.44A1.45,1.45,0,0,1,125.41,55.26Z"/> <path fill="#124a9b" d="M130.41,54.18a1.46,1.46,0,0,1,2.37-.55A2,2,0,0,1,130.41,54.18Z"/> <path fill="#124a9b" d="M138.43,52.23c.45-1,1-1.45,1.9-.38A1.5,1.5,0,0,1,138.43,52.23Z"/> <path fill="#124a9b" d="M142.42,51.28c.47-1.09,1.06-1.5,1.93-.35A1.4,1.4,0,0,1,142.42,51.28Z"/> <path fill="#124a9b" d="M48.08,50.4c1.06-.34,1.91-.2,2.35,1A2.19,2.19,0,0,1,48.08,50.4Z"/> <path fill="#124a9b" d="M146.42,50.35c.41-1.08,1-1.62,1.93-.48A1.57,1.57,0,0,1,146.42,50.35Z"/> <path fill="#124a9b" d="M44.11,48.39c1.13-.35,2-.15,2.31,1.15A2.62,2.62,0,0,1,44.11,48.39Z"/> </g></svg>